<svg width="712" height="202" viewBox="0 0 712 202" fill="none" xmlns="http://www.w3.org/2000/svg">
<path d="M134.025 34.8291C124.247 34.8291 116.498 36.4068 110.742 39.6231C103.717 43.5482 98.5502 49.488 95.3706 56.2185C94.3851 58.3029 93.6016 60.4709 93.0166 62.6912L169.649 62.6912C173.313 62.7156 174.367 62.1809 176.14 59.2816L190.383 34.8291L134.026 34.8291H134.025Z" fill="url(#paint0_linear_3_34)"/>
<path d="M56.2855 83.2098C61.1743 91.6033 66.4268 97.4683 72.1167 100.801C79.0574 104.869 86.8325 106.335 94.3002 105.7C96.6137 105.503 98.8992 105.092 101.132 104.484C94.0824 92.3799 62.8151 38.6967 62.8151 38.6967C61.0057 35.5378 60.0096 34.9022 56.5911 34.8291H28.1064C29.8385 37.8016 53.5029 78.435 56.2855 83.2098Z" fill="url(#paint1_linear_3_34)"/>
<path d="M137.424 125.757C142.313 117.363 144.809 109.921 144.878 103.371C144.962 95.3785 142.355 87.9724 138.066 81.8793C136.737 79.9916 135.234 78.2346 133.588 76.6221C126.538 88.7264 95.2709 142.41 95.2709 142.41C93.4176 145.542 93.3578 146.714 95.0039 149.685L109.245 174.139C110.977 171.167 134.642 130.533 137.424 125.759V125.757Z" fill="url(#paint2_linear_3_34)"/>
<path d="M235.352 44.8524C239.672 48.9564 240.608 55.9404 238.304 61.7724L236.864 65.4444H250.904L238.304 34.9164H248.888L269.984 85.3164H258.608L253.856 73.8684H233.552L228.944 85.3164H218L235.352 44.8524Z" fill="black"/>
<path d="M308.302 76.7484C304.774 82.6524 299.661 86.1804 291.885 86.1804C281.445 86.1804 272.877 77.4684 272.877 66.2364C272.877 55.2204 281.445 46.4364 291.885 46.4364C299.373 46.4364 304.486 49.6044 307.582 54.5004L300.742 59.1084C298.582 56.5164 296.205 55.1484 291.885 55.1484C286.413 55.1484 282.022 60.1164 281.95 66.2364C281.878 72.7164 286.414 77.5404 291.958 77.5404C294.55 77.5404 296.493 76.9644 298.077 75.8124C299.445 74.8044 300.814 74.4444 302.614 74.4444C304.63 74.4444 307.15 75.3804 308.302 76.7484Z" fill="black"/>
<path d="M348.45 76.7484C344.922 82.6524 339.81 86.1804 332.034 86.1804C321.594 86.1804 313.026 77.4684 313.026 66.2364C313.026 55.2204 321.594 46.4364 332.034 46.4364C339.522 46.4364 344.634 49.6044 347.73 54.5004L340.89 59.1084C338.73 56.5164 336.354 55.1484 332.034 55.1484C326.562 55.1484 322.17 60.1164 322.098 66.2364C322.026 72.7164 326.562 77.5404 332.106 77.5404C334.698 77.5404 336.642 76.9644 338.226 75.8124C339.594 74.8044 340.962 74.4444 342.762 74.4444C344.778 74.4444 347.298 75.3804 348.45 76.7484Z" fill="black"/>
<path d="M372.182 86.1804C360.806 86.1804 353.174 77.4684 353.174 66.2364C353.174 54.9324 360.518 46.5084 371.678 46.4364C383.414 46.4364 390.182 54.9324 390.182 65.5884C390.182 66.9564 390.11 68.2524 389.894 69.5484H362.534C363.11 74.1564 367.502 77.7564 372.182 77.7564C374.918 77.7564 376.862 77.1804 378.23 76.1004C379.742 74.9484 381.254 74.3724 383.198 74.3724C385.574 74.3724 387.878 75.1644 389.462 77.1804C384.926 83.7324 379.454 86.1804 372.182 86.1804ZM362.534 62.5644H380.75C380.246 58.4604 377.006 54.7884 371.678 54.7884C367.286 54.7884 363.326 58.1004 362.534 62.5644Z" fill="black"/>
<path d="M413.63 86.1804C407.582 86.1804 401.39 84.0924 396.494 80.0604L401.534 72.7164C405.926 76.5324 409.526 77.6844 413.774 77.6844C417.158 77.6844 419.246 76.4604 419.246 74.5884C419.246 73.0044 418.022 71.4924 412.046 69.9084C404.99 68.0364 398.222 65.6604 398.222 57.6684C398.222 50.9724 404.27 46.5084 412.55 46.5084C419.03 46.5084 423.206 48.3804 428.318 51.9084C425.366 54.9324 423.782 56.2284 420.758 56.4444C419.822 56.4444 418.526 56.3004 417.302 55.7964C415.79 55.1484 414.062 54.5724 412.406 54.5724C409.67 54.5724 407.51 55.5084 407.51 57.5244C407.51 59.3964 410.102 60.9084 415.862 62.3484C422.558 64.0044 428.966 66.8844 428.966 74.5884C428.966 82.2924 422.486 86.1804 413.63 86.1804Z" fill="black"/>
<path d="M452.723 86.1804C446.675 86.1804 440.483 84.0924 435.587 80.0604L440.627 72.7164C445.019 76.5324 448.619 77.6844 452.867 77.6844C456.251 77.6844 458.339 76.4604 458.339 74.5884C458.339 73.0044 457.115 71.4924 451.139 69.9084C444.083 68.0364 437.315 65.6604 437.315 57.6684C437.315 50.9724 443.363 46.5084 451.643 46.5084C458.123 46.5084 462.299 48.3804 467.411 51.9084C464.459 54.9324 462.875 56.2284 459.851 56.4444C458.915 56.4444 457.619 56.3004 456.395 55.7964C454.883 55.1484 453.155 54.5724 451.499 54.5724C448.763 54.5724 446.603 55.5084 446.603 57.5244C446.603 59.3964 449.195 60.9084 454.955 62.3484C461.651 64.0044 468.059 66.8844 468.059 74.5884C468.059 82.2924 461.579 86.1804 452.723 86.1804Z" fill="black"/>
<path d="M477.705 42.7644H487.713V32.7564H477.705V42.7644ZM477.849 85.3164V54.7884C477.849 49.5324 482.097 47.6604 487.569 46.7244V85.3164H477.849Z" fill="black"/>
<path d="M499.199 31.3164C503.807 31.6044 509.063 34.1964 509.063 40.3884V50.9004C511.871 48.1644 515.687 46.4364 519.791 46.4364C528.359 46.4364 536.927 53.2764 536.927 66.3084C536.927 79.1964 528.359 86.1804 519.791 86.1804C515.471 86.1804 511.511 84.0924 508.631 80.9964V85.3164H499.199V31.3164ZM507.983 66.2364C507.983 72.9324 512.087 77.4684 517.919 77.4684C523.823 77.4684 527.927 72.9324 527.927 66.2364C527.927 59.6124 523.823 55.0044 517.919 55.0044C512.087 55.0044 507.983 59.6124 507.983 66.2364Z" fill="black"/>
<path d="M546.26 42.7644H556.268V32.7564H546.26V42.7644ZM546.404 85.3164V54.7884C546.404 49.5324 550.652 47.6604 556.124 46.7244V85.3164H546.404Z" fill="black"/>
<path d="M578.121 71.7804C578.121 75.2364 579.993 76.6044 582.513 76.6044C583.953 76.6764 585.321 76.4604 586.617 76.2444V85.6044C584.745 86.0364 582.513 86.1804 580.353 86.1804C572.649 86.1804 568.474 81.3564 568.474 73.6524V31.4604C573.802 32.0364 578.121 35.2044 578.121 40.5324V71.7804Z" fill="black"/>
<path d="M594.635 42.7644H604.643V32.7564H594.635V42.7644ZM594.779 85.3164V54.7884C594.779 49.5324 599.027 47.6604 604.499 46.7244V85.3164H594.779Z" fill="black"/>
<path d="M634.704 55.7964H630.529V71.7804C630.529 76.3164 632.473 77.6124 636.289 77.6124C637.369 77.6124 639.529 77.3244 640.969 76.9644V85.1724C638.737 85.8924 636.577 86.1804 633.48 86.1804C626.352 86.1804 620.953 81.3564 620.953 71.8524V55.7964H612.384L615.625 47.9484C615.841 47.5164 616.201 47.3004 616.633 47.3004H620.953V36.7164H630.529V47.3004H642.552C642.12 51.1164 639.456 55.7964 634.704 55.7964Z" fill="black"/>
<path d="M672.133 82.4364C667.885 92.8764 664.933 98.1324 655.357 98.1324C654.061 98.1324 652.981 97.9884 651.757 97.7004V88.7724C654.061 89.1324 656.005 88.9164 657.589 88.1244C659.245 87.2604 660.397 85.2444 661.549 81.9324L645.781 47.3004H656.293L666.229 71.6364L673.861 53.4924C676.669 46.7964 682.573 45.9324 686.749 46.7964L672.133 82.4364Z" fill="black"/>
<path d="M261.128 135.316C257.528 131.5 252.992 129.484 247.592 129.484C237.728 129.484 230.672 136.756 230.672 146.188C230.672 155.908 237.728 162.748 247.592 162.748C252.128 162.748 255.944 161.524 258.968 159.076V152.38H253.352C246.152 152.38 243.416 148.852 242.408 143.452H268.688V163.756C263.216 169.804 255.368 172.18 247.52 172.18C232.4 172.18 220.88 161.02 220.88 146.116C220.88 131.284 232.472 120.052 247.52 120.052C255.152 120.052 263.288 123.292 267.824 128.62L261.128 135.316Z" fill="black"/>
<path d="M279.531 154.756V133.3H289.395V154.18C289.395 160.372 292.131 163.612 296.883 163.612C301.347 163.612 304.371 160.372 304.371 154.18V133.3H314.235V172.684C311.283 172.324 306.027 170.956 304.803 167.14C302.499 170.38 298.683 172.18 294.003 172.18C284.859 172.18 279.531 166.42 279.531 154.756Z" fill="black"/>
<path d="M325.479 128.764H335.487V118.756H325.479V128.764ZM325.623 171.316V140.788C325.623 135.532 329.871 133.66 335.343 132.724V171.316H325.623Z" fill="black"/>
<path d="M344.596 152.308C344.596 139.276 353.164 132.436 361.732 132.436C365.836 132.436 369.652 134.164 372.46 136.9V126.388C372.46 120.196 377.716 117.604 382.324 117.316V171.316H372.892V166.996C370.012 170.092 366.052 172.18 361.732 172.18C353.164 172.18 344.596 165.196 344.596 152.308ZM353.596 152.236C353.596 158.932 357.7 163.468 363.604 163.468C369.436 163.468 373.54 158.932 373.54 152.236C373.54 145.612 369.436 141.004 363.604 141.004C357.7 141.004 353.596 145.612 353.596 152.236Z" fill="black"/>
<path d="M409.729 172.18C398.353 172.18 390.721 163.468 390.721 152.236C390.721 140.932 398.065 132.508 409.225 132.436C420.961 132.436 427.729 140.932 427.729 151.588C427.729 152.956 427.657 154.252 427.441 155.548H400.081C400.657 160.156 405.049 163.756 409.729 163.756C412.465 163.756 414.409 163.18 415.777 162.1C417.289 160.948 418.801 160.372 420.745 160.372C423.121 160.372 425.425 161.164 427.009 163.18C422.473 169.732 417.001 172.18 409.729 172.18ZM400.081 148.564H418.297C417.793 144.46 414.553 140.788 409.225 140.788C404.833 140.788 400.873 144.1 400.081 148.564Z" fill="black"/>
<path d="M446.497 157.78C446.497 161.236 448.369 162.604 450.889 162.604C452.329 162.676 453.697 162.46 454.993 162.244V171.604C453.121 172.036 450.889 172.18 448.729 172.18C441.025 172.18 436.848 167.356 436.848 159.652V117.46C442.176 118.036 446.497 121.204 446.497 126.532V157.78Z" fill="black"/>
<path d="M463.01 128.764H473.018V118.756H463.01V128.764ZM463.154 171.316V140.788C463.154 135.532 467.402 133.66 472.874 132.724V171.316H463.154Z" fill="black"/>
<path d="M484.504 132.004C487.744 132.364 492.351 133.804 493.863 137.476C496.815 133.948 501.063 132.508 505.095 132.508C512.079 132.508 519.207 136.9 519.207 148.78V171.316H509.344V149.716C509.344 144.316 506.824 141.004 501.784 141.004C497.104 141.004 494.367 144.532 494.367 149.716V171.316H484.504V132.004Z" fill="black"/>
<path d="M546.135 172.18C534.759 172.18 527.128 163.468 527.128 152.236C527.128 140.932 534.471 132.508 545.632 132.436C557.367 132.436 564.135 140.932 564.135 151.588C564.135 152.956 564.064 154.252 563.848 155.548H536.487C537.063 160.156 541.455 163.756 546.135 163.756C548.871 163.756 550.816 163.18 552.184 162.1C553.696 160.948 555.207 160.372 557.151 160.372C559.527 160.372 561.832 161.164 563.415 163.18C558.879 169.732 553.407 172.18 546.135 172.18ZM536.487 148.564H554.703C554.199 144.46 550.96 140.788 545.632 140.788C541.239 140.788 537.279 144.1 536.487 148.564Z" fill="black"/>
<path d="M587.583 172.18C581.535 172.18 575.343 170.092 570.447 166.06L575.487 158.716C579.879 162.532 583.479 163.684 587.727 163.684C591.111 163.684 593.199 162.46 593.199 160.588C593.199 159.004 591.975 157.492 585.999 155.908C578.943 154.036 572.175 151.66 572.175 143.668C572.175 136.972 578.223 132.508 586.503 132.508C592.983 132.508 597.159 134.38 602.271 137.908C599.319 140.932 597.735 142.228 594.711 142.444C593.775 142.444 592.479 142.3 591.255 141.796C589.743 141.148 588.015 140.572 586.359 140.572C583.623 140.572 581.463 141.508 581.463 143.524C581.463 145.396 584.055 146.908 589.815 148.348C596.511 150.004 602.919 152.884 602.919 160.588C602.919 168.292 596.439 172.18 587.583 172.18Z" fill="black"/>
<defs>
<linearGradient id="paint0_linear_3_34" x1="189.406" y1="48.7601" x2="94.4237" y2="48.7601" gradientUnits="userSpaceOnUse">
<stop stop-color="#008CE6"/>
<stop offset="0.09" stop-color="#0D99E4"/>
<stop offset="0.36" stop-color="#32BEDE"/>
<stop offset="0.61" stop-color="#4DD9DA"/>
<stop offset="0.83" stop-color="#5EEAD7"/>
<stop offset="1" stop-color="#64F0D7"/>
</linearGradient>
<linearGradient id="paint1_linear_3_34" x1="40.7647" y1="28.6986" x2="87.6359" y2="110.596" gradientUnits="userSpaceOnUse">
<stop stop-color="#008CE6"/>
<stop offset="0.09" stop-color="#0D99E4"/>
<stop offset="0.36" stop-color="#32BEDE"/>
<stop offset="0.61" stop-color="#4DD9DA"/>
<stop offset="0.83" stop-color="#5EEAD7"/>
<stop offset="1" stop-color="#64F0D7"/>
</linearGradient>
<linearGradient id="paint2_linear_3_34" x1="97.5631" y1="166.335" x2="144.433" y2="84.4392" gradientUnits="userSpaceOnUse">
<stop stop-color="#008CE6"/>
<stop offset="0.09" stop-color="#0D99E4"/>
<stop offset="0.36" stop-color="#32BEDE"/>
<stop offset="0.61" stop-color="#4DD9DA"/>
<stop offset="0.83" stop-color="#5EEAD7"/>
<stop offset="1" stop-color="#64F0D7"/>
</linearGradient>
</defs>
</svg>
