<?xml version="1.0" encoding="UTF-8"?><svg id="logo" xmlns="http://www.w3.org/2000/svg" xmlns:xlink="http://www.w3.org/1999/xlink" viewBox="0 0 1243.76 1160"><defs><style>.cls-1{fill:url(#_名称未設定グラデーション_15-2);}.cls-2{fill:url(#_名称未設定グラデーション_15-3);}.cls-3{fill:url(#_名称未設定グラデーション_15);}</style><linearGradient id="_名称未設定グラデーション_15" x1="1078.2" y1="280.01" x2="537.51" y2="280.01" gradientUnits="userSpaceOnUse"><stop offset="0" stop-color="#008ce6"/><stop offset=".09" stop-color="#0d99e4"/><stop offset=".36" stop-color="#32bede"/><stop offset=".61" stop-color="#4dd9da"/><stop offset=".83" stop-color="#5eead7"/><stop offset="1" stop-color="#64f0d7"/></linearGradient><linearGradient id="_名称未設定グラデーション_15-2" x1="1518.16" y1="17000.78" x2="977.46" y2="17000.78" gradientTransform="translate(-13731.97 9979.96) rotate(-120)" xlink:href="#_名称未設定グラデーション_15"/><linearGradient id="_名称未設定グラデーション_15-3" x1="-13182.44" y1="9021.4" x2="-13723.13" y2="9021.4" gradientTransform="translate(1776.92 16882.22) rotate(120)" xlink:href="#_名称未設定グラデーション_15"/></defs><path class="cls-3" d="m762.94,200.01c-55.66,0-99.77,9.06-132.54,27.53-39.99,22.54-69.4,56.65-87.5,95.3-5.61,11.97-10.07,24.42-13.4,37.17h436.23c20.86.14,26.86-2.93,36.95-19.58l81.08-140.42h-320.81Z"/><path class="cls-1" d="m320.41,477.84c27.83,48.2,57.73,81.88,90.12,101.02,39.51,23.36,83.77,31.78,126.28,28.13,13.17-1.13,26.18-3.49,38.89-6.98-40.13-69.51-218.12-377.79-218.12-377.79-10.3-18.14-15.97-21.79-35.43-22.21h-162.15c9.86,17.07,144.57,250.41,160.41,277.83Z"/><path class="cls-2" d="m782.29,722.17c27.83-48.2,42.04-90.94,42.43-128.55.48-45.9-14.36-88.43-38.78-123.42-7.56-10.84-16.12-20.93-25.49-30.19-40.13,69.51-218.12,377.79-218.12,377.79-10.55,17.99-10.89,24.72-1.52,41.78l81.07,140.43c9.86-17.07,144.57-250.41,160.41-277.83Z"/></svg>